<?xml version="1.0" standalone="no"?><!DOCTYPE svg PUBLIC "-//W3C//DTD SVG 1.1//EN" "http://www.w3.org/Graphics/SVG/1.1/DTD/svg11.dtd"><svg t="1489571428091" class="icon" style="" viewBox="0 0 1024 1024" version="1.1" xmlns="http://www.w3.org/2000/svg" p-id="2051" xmlns:xlink="http://www.w3.org/1999/xlink" width="200" height="200"><defs><style type="text/css"></style></defs><path d="M542.960941 8.613647C310.753882 8.613647 122.337882 188.054588 122.337882 409.238588 122.337882 630.603294 434.236235 963.764706 542.960941 963.764706 651.866353 963.764706 963.764706 630.603294 963.764706 409.238588 963.764706 188.054588 775.408941 8.613647 542.960941 8.613647L542.960941 8.613647ZM475.557647 656.263529C456.523294 675.418353 390.384941 639.939765 328.101647 576.692706 265.697882 513.686588 230.640941 446.945882 249.675294 427.670588 268.649412 408.335059 334.727529 443.873882 397.071059 507.000471 459.294118 570.127059 494.592 636.807529 475.557647 656.263529L475.557647 656.263529ZM609.219765 655.781647C589.944471 636.506353 625.483294 569.886118 688.790588 506.819765 751.977412 443.753412 818.778353 408.274824 838.174118 427.670588 857.449412 446.825412 821.850353 513.445647 758.663529 576.451765 695.416471 639.518118 628.495059 674.876235 609.219765 655.781647L609.219765 655.781647Z" p-id="2052"></path></svg>