<?xml version="1.0" standalone="no"?><!DOCTYPE svg PUBLIC "-//W3C//DTD SVG 1.1//EN" "http://www.w3.org/Graphics/SVG/1.1/DTD/svg11.dtd"><svg t="1495700541084" class="icon" style="" viewBox="0 0 1024 1024" version="1.1" xmlns="http://www.w3.org/2000/svg" p-id="1960" xmlns:xlink="http://www.w3.org/1999/xlink" width="200" height="200"><defs><style type="text/css"></style></defs><path d="M156.776 770.088a381.336 94.504 0 1 0 762.672 0 381.336 94.504 0 1 0-762.672 0z" fill="#B8CBCD" p-id="1961"></path><path d="M908.776 553.432h-760s-22 124 0 165.96c19.52 37.24 174.712 86.712 380.4 86.712 205.68 0 364.992-50.232 379.6-86.712 16-39.96 0-165.96 0-165.96z" fill="#F7BB83" p-id="1962"></path><path d="M529.176 830.104c-192.696 0-372.88-44.664-401.664-99.568-24.56-46.84-6.288-159.24-2.376-181.296a24 24 0 0 1 23.632-19.808h760a24 24 0 0 1 23.808 20.976c2.808 22.072 15.904 134.376-1.528 177.904-22.088 55.176-206.128 101.792-401.872 101.792zM169.272 577.432c-6.712 47.576-10.168 109.992 0.752 130.824 12.072 22.08 148.824 73.848 359.152 73.848 207.8 0 344.8-50.528 357.528-72.096 8.016-20.088 5.56-83.624 0.632-132.576H169.272z" fill="#6E4123" p-id="1963"></path><path d="M106.128 591.872c-11.248 43.848 9.928 93.6 53.776 104.832 43.856 11.248 86.752-22.072 97.992-65.912l-151.768-38.92z" fill="#B2EDA6" p-id="1964"></path><path d="M177.272 714.912c-0.008 0 0 0 0 0a85.68 85.68 0 0 1-21.344-2.704c-25.296-6.488-45.88-23.784-57.968-48.704-11.104-22.904-13.776-50.472-7.336-75.608a15.976 15.976 0 0 1 19.48-11.52l151.768 38.92a16 16 0 0 1 11.52 19.48c-11.904 46.432-52.336 80.136-96.12 80.136z m-58.032-103.16c-0.624 13.096 1.936 26.288 7.504 37.792 7.912 16.312 21.096 27.552 37.12 31.664a53.657 53.657 0 0 0 13.4 1.704c24.168 0 47.68-16.824 59.544-41.008L119.24 611.752z" fill="#3C663E" p-id="1965"></path><path d="M269.432 634.048c-2.352 45.208 28.232 89.792 73.448 92.136 45.2 2.36 80.664-38.784 83.016-83.992l-156.464-8.144z" fill="#B2EDA6" p-id="1966"></path><path d="M346.584 742.272c-1.504 0-3.024-0.04-4.544-0.12-26.08-1.352-49.68-14.232-66.456-36.28-15.416-20.248-23.488-46.736-22.136-72.656a15.976 15.976 0 0 1 16.808-15.152l156.472 8.144a16 16 0 0 1 15.144 16.808c-2.84 54.736-45.584 99.256-95.288 99.256z m-60.368-91.328c1.976 12.96 7.096 25.392 14.832 35.552 10.976 14.432 26.128 22.84 42.656 23.704 29.672 1.592 55.704-21.56 63.784-52.952l-121.272-6.304z" fill="#3C663E" p-id="1967"></path><path d="M446.056 647.456c0 45.272 32.864 88.2 78.136 88.2 45.264 0 78.544-42.928 78.544-88.2h-156.68z" fill="#B2EDA6" p-id="1968"></path><path d="M524.192 751.664c-51.904 0-94.136-46.744-94.136-104.2a16 16 0 0 1 16-16h156.68a16 16 0 0 1 16 16c0 57.456-42.408 104.2-94.544 104.2z m-60.44-88.208c6.208 29.4 28.944 56.2 60.44 56.2 31.704 0 54.584-26.808 60.832-56.2H463.752z" fill="#3C663E" p-id="1969"></path><path d="M939.12 591.872c11.248 43.848-9.928 93.6-53.776 104.832-43.848 11.248-86.752-22.072-98-65.912l151.776-38.92z" fill="#B2EDA6" p-id="1970"></path><path d="M867.984 714.912c-43.792 0-84.216-33.704-96.128-80.144a16.016 16.016 0 0 1 11.52-19.48l151.768-38.92a16 16 0 0 1 19.48 11.52c6.448 25.144 3.776 52.704-7.336 75.608-12.08 24.92-32.672 42.216-57.968 48.704a85.306 85.306 0 0 1-21.336 2.712z m-59.552-73.008c14.064 28.664 44.808 46.528 72.944 39.304 16.032-4.112 29.216-15.352 37.128-31.664 5.576-11.504 8.136-24.696 7.504-37.792l-117.576 30.152z" fill="#3C663E" p-id="1971"></path><path d="M775.816 634.048c2.352 45.208-28.232 89.792-73.448 92.136-45.2 2.36-80.672-38.784-83.016-83.992l156.464-8.144z" fill="#B2EDA6" p-id="1972"></path><path d="M698.672 742.272c-49.704 0-92.456-44.52-95.296-99.256a16 16 0 0 1 15.144-16.808l156.472-8.144a15.92 15.92 0 0 1 11.544 4.096 15.96 15.96 0 0 1 5.264 11.056c1.352 25.92-6.72 52.408-22.136 72.656-16.776 22.048-40.384 34.928-66.464 36.28-1.512 0.08-3.032 0.12-4.528 0.12z m-60.912-85.024c8.08 31.384 34.304 54.504 63.776 52.952 16.536-0.856 31.688-9.272 42.664-23.704 7.736-10.168 12.856-22.592 14.832-35.552l-121.272 6.304z" fill="#3C663E" p-id="1973"></path><path d="M106.128 591.872c-8.936 34.848 2.6 82.48 29.72 102.496" fill="#B2EDA6" p-id="1974"></path><path d="M135.824 718.368c-4.952 0-9.944-1.52-14.232-4.688-37.624-27.776-49.224-86.776-38.712-127.768a24 24 0 0 1 46.496 11.92c-6.992 27.248 2.888 64.056 20.728 77.216a24 24 0 0 1-14.28 43.32z" fill="#3C663E" p-id="1975"></path><path d="M939.12 591.872c9.84 38.368 3.544 84.728-27.552 103.232" fill="#B2EDA6" p-id="1976"></path><path d="M911.592 719.104a24 24 0 0 1-12.296-44.624c20.424-12.152 23.784-48.56 16.584-76.648a24 24 0 0 1 46.496-11.92c11.84 46.168 4.52 104.2-38.528 129.824a23.952 23.952 0 0 1-12.256 3.368z" fill="#3C663E" p-id="1977"></path><path d="M911.272 461.584H136.776c-37.336 0-77.336 76.672-27.592 125.752 37.712 37.208 256.76 62.728 414.84 62.728 158.08 0 377.128-25.512 414.84-62.728 49.736-49.08 9.736-125.752-27.592-125.752z" fill="#FFBAB0" p-id="1978"></path><path d="M524.024 666.064c-150.016 0-381.552-23.4-426.08-67.336-33.144-32.704-32.264-75.28-20.392-104.216 12.008-29.264 35.808-48.928 59.216-48.928h774.496c23.416 0 47.208 19.664 59.216 48.928 11.872 28.936 12.752 71.504-20.384 104.208-44.52 43.944-276.048 67.344-426.072 67.344z m-387.248-188.48c-8.576 0-21.864 10.192-29.616 29.08-3.848 9.384-14.272 42.12 13.264 69.28 29.72 29.328 229.64 58.12 403.608 58.12s373.88-28.792 403.6-58.12c27.528-27.168 17.112-59.896 13.264-69.28-7.752-18.88-21.04-29.08-29.616-29.08H136.776z" fill="#6E4123" p-id="1979"></path><path d="M294.776 485.584l352 199.84 240-205.84h-224z" fill="#F6E89A" p-id="1980"></path><path d="M646.768 701.424a15.98 15.98 0 0 1-7.896-2.088l-352-199.84a16 16 0 0 1 7.632-29.912l368-6h224.264a16 16 0 1 1 10.416 28.152l-240 205.84a15.976 15.976 0 0 1-10.416 3.848z m-293.088-200.8L644.896 665.96l198.648-170.376H662.776l-309.096 5.04z" fill="#8D4520" p-id="1981"></path><path d="M523.376 167.248c-370.784 0-382.736 261.336-382.736 283.112 0 35.224 169.992 87.152 382.808 87.152s385.336-42.656 385.336-78.288c-0.008-31.64-34.008-291.976-385.408-291.976z" fill="#F7BB83" p-id="1982"></path><path d="M523.44 561.504c-98.976 0-197.368-11.04-277.064-31.088-129.736-32.64-129.736-68.328-129.736-80.056 0-12.536 4.624-307.112 406.736-307.112 193.848 0 293.84 78.096 343.592 143.608 53.992 71.096 65.816 148.52 65.816 172.36-0.008 74.52-251.08 102.288-409.344 102.288zM164.72 446.848c19.48 21.192 156.672 66.656 358.72 66.656 200.064 0 339.392-37.248 361.104-58.008-1.264-15.64-9.144-78.16-55.816-139.616-62.8-82.696-165.536-124.632-305.36-124.632-336.232 0-357.36 223.384-358.648 255.6z" fill="#6E4123" p-id="1983"></path><path d="M334.016 305.72a18.464 18.464 0 1 0 36.928 0 18.464 18.464 0 1 0-36.928 0zM481.712 268.784a18.464 18.464 0 1 0 36.928 0 18.464 18.464 0 1 0-36.928 0zM431.848 382.048a18.464 18.464 0 1 0 36.928 0 18.464 18.464 0 1 0-36.928 0zM620.184 287.256a18.464 18.464 0 1 0 36.928 0 18.464 18.464 0 1 0-36.928 0zM540.776 382.048a18.464 18.464 0 1 0 36.928 0 18.464 18.464 0 1 0-36.928 0zM684.768 398.048a18.464 18.464 0 1 0 36.928 0 18.464 18.464 0 1 0-36.928 0zM754.312 347.584a18.464 18.464 0 1 0 36.928 0 18.464 18.464 0 1 0-36.928 0zM241.704 398.024a18.464 18.464 0 1 0 36.928 0 18.464 18.464 0 1 0-36.928 0zM938.864 622.664a24 24 0 0 1-16.856-41.088c20.144-19.864 18.6-48.952 10.44-69.536-7.296-18.4-18.104-26.384-21.176-26.456-13.136-0.312-23.864-11.144-23.704-24.28 0.16-13.152 10.568-23.72 23.712-23.72 26.224 0 51.216 21.2 65.224 55.344 14.448 35.208 16.576 85.96-20.776 122.824a23.968 23.968 0 0 1-16.864 6.912z m-829.68-2.264a23.952 23.952 0 0 1-16.856-6.912c-37.064-36.576-35.184-86.384-21.064-120.8 13.736-33.472 39.448-55.104 65.512-55.104a24 24 0 1 1 0 48c-3.048 0-13.808 7.528-21.104 25.328-8.208 20.016-9.8 48.496 10.368 68.4a24 24 0 0 1-16.856 41.088z" fill="#6E4123" p-id="1984"></path></svg>