<?xml version="1.0" standalone="no"?><!DOCTYPE svg PUBLIC "-//W3C//DTD SVG 1.1//EN" "http://www.w3.org/Graphics/SVG/1.1/DTD/svg11.dtd"><svg t="1495699402675" class="icon" style="" viewBox="0 0 1024 1024" version="1.1" xmlns="http://www.w3.org/2000/svg" p-id="6461" xmlns:xlink="http://www.w3.org/1999/xlink" width="200" height="200"><defs><style type="text/css"></style></defs><path d="M224.146653 1023.730238a21.968606 21.968606 0 0 1-25.199283-18.737928 22.614741 22.614741 0 0 1 19.060996-25.522351l307.883546-44.260279h2.584542a93.689642 93.689642 0 0 0 56.213785-37.475856l4.522948-4.522948L770.454184 701.631712c7.753626-8.076693 10.338167-15.184183 9.368964-19.707132a7.430558 7.430558 0 0 0 0-2.907609 6.784422 6.784422 0 0 0-2.907609 0 32.306773 32.306773 0 0 0-22.937809 8.399761l-174.133507 136.011514a131.165498 131.165498 0 0 1-29.722231 16.799522 129.227092 129.227092 0 0 1-33.922112 7.10749l-83.997609 4.522948h-1.615339a36.183586 36.183586 0 0 1-15.184183-3.230677 34.891315 34.891315 0 0 1-13.891913-10.661235 37.475857 37.475857 0 0 1-6.461354-13.891913v-1.938406a35.214383 35.214383 0 0 1 0-15.507251 177.364184 177.364184 0 0 0 6.784422-53.629243 193.840638 193.840638 0 0 0-12.276574-55.56765c-5.169084-14.21498-13.245777-21.32247-20.353267-21.968606a17.768725 17.768725 0 0 0-7.753625 0 20.030199 20.030199 0 0 0-7.430558 5.492152 36.506653 36.506653 0 0 0-3.553745 38.121992 116.627451 116.627451 0 0 1 7.753626 58.798327 135.365379 135.365379 0 0 1-24.553148 54.921514A117.919721 117.919721 0 0 1 285.852589 872.857609a186.733148 186.733148 0 0 1-49.429363 15.507251 22.291673 22.291673 0 0 1-26.168486-17.12259 22.614741 22.614741 0 0 1 15.830319-27.783825 169.287491 169.287491 0 0 0 38.768128-11.30737 78.828526 78.828526 0 0 0 29.399163-26.814622 96.920319 96.920319 0 0 0 17.445657-36.183586 76.243984 76.243984 0 0 0-5.815219-36.829721A79.474662 79.474662 0 0 1 318.159362 649.617807H64.874262a37.475857 37.475857 0 0 1 0-74.628646h14.861115a431.29542 431.29542 0 0 1 126.64255-303.683666A430.972352 430.972352 0 0 1 415.079681 154.031909a107.258486 107.258486 0 0 1-9.045896-43.614143A106.935419 106.935419 0 1 1 608.920319 154.031909a430.326216 430.326216 0 0 1 208.055618 115.33518l1.938407 2.261474a431.941555 431.941555 0 0 1 124.704143 302.068328h14.538048a37.475857 37.475857 0 0 1 0 74.628645h-146.349682a50.075498 50.075498 0 0 1 12.276574 24.23008 67.198088 67.198088 0 0 1-21.32247 59.76753l-181.564064 190.609961-4.522948 5.169083a126.319482 126.319482 0 0 1-85.612949 51.367769l-306.914343 44.260279zM534.937809 132.709439a32.306773 32.306773 0 1 0-45.875618-45.229482 32.306773 32.306773 0 0 0 0 45.875618 32.306773 32.306773 0 0 0 45.875618 0zM154.040955 573.373823h715.91809a356.989842 356.989842 0 0 0-103.058606-249.731355h-1.615339a359.574384 359.574384 0 0 0-506.247133 0 355.374503 355.374503 0 0 0-104.673944 251.023626zM410.233665 649.617807a87.874423 87.874423 0 0 1 18.414861 32.306773 226.147411 226.147411 0 0 1 14.861115 64.613546 204.178805 204.178805 0 0 1-5.492151 56.859921l73.98251-2.584542a61.382869 61.382869 0 0 0 20.353267-4.199881 70.428765 70.428765 0 0 0 18.091793-10.338167l174.456574-136.65765 2.90761-1.938406z m117.596654 286.884144z m56.536853-37.475856z m190.933028-220.65526a22.291673 22.291673 0 0 1-14.538048-28.753028l14.538048 27.460757z" fill="#3C95D2" p-id="6462"></path></svg>