<?xml version="1.0" standalone="no"?><!DOCTYPE svg PUBLIC "-//W3C//DTD SVG 1.1//EN" "http://www.w3.org/Graphics/SVG/1.1/DTD/svg11.dtd"><svg t="1495694223016" class="icon" style="" viewBox="0 0 1024 1024" version="1.1" xmlns="http://www.w3.org/2000/svg" p-id="5113" xmlns:xlink="http://www.w3.org/1999/xlink" width="200" height="200"><defs><style type="text/css"></style></defs><path d="M922.848406 338.39992c-22.512241-53.108424-54.64335-100.793445-95.574698-141.724793s-88.616369-73.062456-141.724793-95.574698c-54.950335-23.22854-113.379834-35.098631-173.548916-35.098631-60.169082 0-118.598581 11.870091-173.651244 35.098631-53.108424 22.512241-100.793445 54.64335-141.724793 95.574698s-73.062456 88.616369-95.574698 141.724793C77.820725 393.452583 66.052963 451.882083 66.052963 512.051164c0 60.169082 11.767763 118.598581 35.098631 173.548916 22.409913 53.108424 54.64335 100.793445 95.574698 141.724793s88.616369 73.062456 141.724793 95.574698c54.950335 23.22854 113.379834 35.098631 173.548916 35.098631s118.598581-11.767763 173.548916-35.098631c53.108424-22.512241 100.793445-54.64335 141.724793-95.574698s73.062456-88.616369 95.574698-141.724793c23.22854-54.950335 35.098631-113.379834 35.098631-173.548916C957.947037 451.882083 946.076946 393.452583 922.848406 338.39992zM512 917.066853c-223.382832 0-405.015689-181.735185-405.015689-405.015689 0-223.280504 181.735185-405.015689 405.015689-405.015689s405.015689 181.735185 405.015689 405.015689C917.015689 735.331668 735.280504 917.066853 512 917.066853z" p-id="5114"></path><path d="M512 511.948836m-297.980214 0a291.2 291.2 0 1 0 595.960428 0 291.2 291.2 0 1 0-595.960428 0Z" p-id="5115"></path></svg>