<?xml version="1.0" standalone="no"?><!DOCTYPE svg PUBLIC "-//W3C//DTD SVG 1.1//EN" "http://www.w3.org/Graphics/SVG/1.1/DTD/svg11.dtd"><svg t="1495699523176" class="icon" style="" viewBox="0 0 1024 1024" version="1.1" xmlns="http://www.w3.org/2000/svg" p-id="7141" xmlns:xlink="http://www.w3.org/1999/xlink" width="200" height="200"><defs><style type="text/css"></style></defs><path d="M856.597339 472.593502 167.401638 472.593502c-16.314571 0-29.53671-13.224186-29.53671-29.538757 0-16.312524 13.223163-29.534663 29.53671-29.534663l30.531364 0c9.80839-158.238954 136.161123-284.600897 294.373471-294.414403L492.306472 78.764901c0-43.499723 35.267225-78.764901 78.766948-78.764901L689.221284 0l0 39.385009L571.07342 39.385009c-21.74935 0-39.382962 17.631566-39.382962 39.380916l0 40.339754C689.902806 128.919185 816.257585 255.280104 826.068022 413.519058l30.529317 0c16.312524 0 29.53671 13.223163 29.53671 29.534663C886.135072 459.368292 872.909863 472.593502 856.597339 472.593502zM728.604246 945.18291c0 43.50177-35.265178 78.766948-78.766948 78.766948L374.160655 1023.949858c-43.50177 0-78.764901-35.265178-78.764901-78.766948l-78.764901-433.208493 590.737272 0L728.604246 945.18291z" p-id="7142"></path></svg>