<?xml version="1.0" standalone="no"?><!DOCTYPE svg PUBLIC "-//W3C//DTD SVG 1.1//EN" "http://www.w3.org/Graphics/SVG/1.1/DTD/svg11.dtd"><svg t="1495700651019" class="icon" style="" viewBox="0 0 1456 1024" version="1.1" xmlns="http://www.w3.org/2000/svg" p-id="2304" xmlns:xlink="http://www.w3.org/1999/xlink" width="284.375" height="200"><defs><style type="text/css"></style></defs><path d="M1340.277 309.407c-82.978-72.346-145.626-12.99-208.49 35.48-2.747 55.954-24.629 121.11-60.253 174.475-14.448 20.344-28.865 40.731-47.004 54.889-25.857 21.881-41.251 21.78-76.264 32.269-7.426 3.126-23.146 15.242-33.007 20.494-5.34 5.54-11.933 10.569-16.233 13.449-13.599 6.814-26.31 7.808-36.624 6.73 30.658 15.511 65.48 35.845 103.407 29.658 16.462-2.53 30.547-2.959 42.392-5.84 45.655-6.164 48.749 9.007 102.622-6.038 75.39-18.717 111.58-81.121 152.297-143.245 54.072-79.833 99.33-157.042 191.914-134.754-10.462-61.374-64.597-91.127-114.757-77.567z m-205.403 1.316c16.186-5.792 106.677-103.177 197.644-35.291 27.016-115.5-107.216-213.386-204.3-160.305 46.485 22.002 52.325 106.154 6.656 195.596zM857.649 643.662c7.688 0.047 15.875-1.223 27.57-7.172 6.872-1.836 14.623-9.482 21.836-15.821 7.188-6.38 17.543-12.949 28.723-17.639 8.512-5.776 17.29-8.425 26.604-12.315 16.203-5.752 29.777-12.583 44.132-25.24 61.317-52.223 104.987-167.102 94.823-232.95 68.528-141.801 28.603-195.104-9.156-219.717C1095.138 75.416 1047.826 9.872 985.588 0c47.55 110.358-180.608 265.904-205.656 372.896-20.479 91.943 7.466 106.399 12.124 166.93 8.435 51.271 36.872 79.803 65.593 103.836z m-47.812-23.229c-16.02-23.358-33.919-55.35-29.69-94.803-12.87 38.219-3.601 74.185-2.285 139.54l3.475 9.348c-97.45 105.208-240.132 163.556-350.965 183.862 6.244-12.992 9.378-29.747 12.853-48.178 5.69-30.293 12.386-65.838 38.53-93.759 96.773-80.755 62.966-150.354 21.295-199.992-138.399 88.31-111.723 183.997-54.62 218.78-11.02 23.034-15.606 47.392-19.717 69.268-5.775 30.721-10.473 55.723-34.212 59.99-18.455 2.952-36.88 5.65-55.16 8.308-35.647 5.206-70.805 10.347-104.882 17.17l-0.087 0.02C145.72 907.737 64.26 936.877 0 1008.337L9.807 1024c12.568-13.964 39.807-37.132 39.807-37.132s8.378-3.526 49.447-30c41.066-26.452 78.643-35.101 137.833-46.988l-0.008-0.004c28.461-4.89 83.715-14.102 104.677-17.149 18.4-2.69 36.919-5.411 55.5-8.37v0.024l0.5-0.096c71.497-11.441 154.464-34.489 232.951-74.566 18.677 67.831 93.625 144.014 208.933 44.645-67.679 2.143-99.94-80.057-170.76-65.751 46.162-27.62 89.728-61.752 127.234-103.582 15.441 0.467 32.88 7.117 42.36 8.07 37.514 1.726 92.34 15.17 126.815-1.587-51.137 6.866-113.929-12.038-155.26-71.08zM431.229 781.766c-42.742-30.539 0.626-96.274-90.999-136.042-30.85 104.908 41.997 125.212 91 136.042z m0 0" p-id="2305"></path></svg>