<?xml version="1.0" standalone="no"?><!DOCTYPE svg PUBLIC "-//W3C//DTD SVG 1.1//EN" "http://www.w3.org/Graphics/SVG/1.1/DTD/svg11.dtd"><svg t="1495699880022" class="icon" style="" viewBox="0 0 1024 1024" version="1.1" xmlns="http://www.w3.org/2000/svg" p-id="8336" xmlns:xlink="http://www.w3.org/1999/xlink" width="200" height="200"><defs><style type="text/css"></style></defs><path d="M566.419935 681.604816c-5.324262-18.274202-176.767959-55.898101-195.182354-61.868069-26.155706-8.464789-35.653011 68.774363-33.850969 89.682555 4.402263 51.229778 34.383088 65.47727 55.420217 53.049217C413.839865 750.040465 571.751361 699.893344 566.419935 681.604816M784.383132 763.771187c-22.874987-8.589632-177.327708-76.156494-181.786253-67.050092-8.370645 17.107633 76.338642 179.239244 88.00024 192.168718 11.660574 12.93152 62.268182-25.723871 77.429487-40.240493C805.175691 813.100686 807.271422 772.359796 784.383132 763.771187M571.799456 695.077665c-6.736425-5.942339-172.290995 74.662467-185.454806 85.990466-13.169951 11.342326 15.796778 62.750159 29.994128 78.271668 34.770921 38.015825 72.584132 41.041742 81.639369 18.383696C507.034407 855.066473 582.131779 704.168718 571.799456 695.077665M587.328128 700.301643c-12.076036 0.88209-72.547293 158.238954-75.333756 175.400822-7.300266 45.017286 57.262168 48.368614 78.276784 49.303916 51.463092 2.307555 78.270645-18.505469 68.651566-40.933271C649.304667 861.646332 597.549933 699.541327 587.328128 700.301643M499.109923 483.471246c10.095939 22.203698 84.263126 181.093475 93.223195 179.234127 7.389294-1.532913 54.665017-186.051393 55.547107-203.418946 0.89437-17.353227-48.797379-23.715121-69.737294-24.170492C526.843568 433.991322 489.031381 461.268572 499.109923 483.471246M842.267471 267.391956l11.661597-20.455891-10.202363-5.814426-11.818163 20.735253c-64.384379-29.448706-192.033641-9.274224-224.923726-3.368724 18.263969 3.653203 35.33067 9.724479 49.821709 17.983583 11.078313 6.305613 20.635993 14.177907 29.006637 23.014156 13.270235 3.418866 25.866111 8.245801 37.121456 14.655791 8.66945 4.939499 16.673751 10.854209 24.007787 17.516956 12.827143 2.679016 25.478278 7.095605 37.696554 13.174044l-56.258305 98.744955 0.008186 0.013303c-40.906665-24.001647-88.494497-37.813211-139.338489-37.813211-25.968441 0-51.055816 3.663436-74.866105 10.366092 0 0 0 0 0.007163 0l-97.502661-202.998367-0.988514 0.471744L183.176414 62.597687l-9.273201 27.844162 221.86711 146.941654 90.438779 188.284247c0 0 0 0 0.00614 0-36.948517 14.856359-69.917396 37.473473-96.92654 65.842591l0 0c-43.815925-28.566616-103.538121-49.40727-184.65458-56.393381 0 0-29.305443 114.734114 14.699794 219.150232-45.11143 2.645247-96.794533 15.697517-155.941632 43.37488 0 0 86.24527 307.60482 375.660822 215.414141 43.179428 28.042683 94.668103 44.392046 149.997246 44.392046 152.335501 0 275.842419-123.492592 275.842419-275.842419 0-97.292883-50.424436-182.761464-126.517485-231.868905l56.587809-99.301633c11.989055 7.137561 22.700001 15.616676 32.020274 25.181519 13.921058 3.364631 27.630291 8.66945 40.704051 16.125259 13.044084 7.435343 24.548092 16.504906 34.529421 26.734898 6.491855 2.387373 12.915148 5.169743 19.156292 8.723685 13.337773 7.598049 26.28055 18.099217 38.110993 30.594809C947.260733 423.482991 901.299959 304.006875 842.267471 267.391956M844.349899 678.674067c0 142.623301-115.614158 258.232342-258.235412 258.232342-142.614092 0-258.232342-115.609041-258.232342-258.232342 0-142.614092 115.618251-258.230296 258.232342-258.230296C728.735741 420.443771 844.349899 536.059975 844.349899 678.674067M602.062713 669.447938c15.697517 7.230682 146.394185-83.847663 174.158529-90.739631 36.544311-9.076726-14.224979-66.833151-28.708855-81.968873-35.471886-37.066197-74.642001-37.492916-90.291422 3.032056C648.434857 522.525728 592.631924 665.107073 602.062713 669.447938M610.425172 685.905772c3.330862 18.749016 183.508477 63.603597 200.901613 64.500013 17.380856 0.895393 23.7581-63.578014 24.217564-84.567048 1.1328-51.407833-20.331048-83.412758-42.580794-73.305563C770.719948 602.641393 607.096357 667.142429 610.425172 685.905772M387.491777 613.57849c23.668049 6.077416 180.272783 56.670697 186.526207 49.710169 12.726859-14.176884-89.803305-168.440293-102.776781-180.040493-12.983709-11.613502-59.81941 25.480324-73.336262 41.537022C364.795868 564.126194 363.822704 607.499028 387.491777 613.57849" p-id="8337"></path></svg>