<?xml version="1.0" standalone="no"?><!DOCTYPE svg PUBLIC "-//W3C//DTD SVG 1.1//EN" "http://www.w3.org/Graphics/SVG/1.1/DTD/svg11.dtd"><svg t="1495700858206" class="icon" style="" viewBox="0 0 1024 1024" version="1.1" xmlns="http://www.w3.org/2000/svg" p-id="489" xmlns:xlink="http://www.w3.org/1999/xlink" width="200" height="200"><defs><style type="text/css"></style></defs><path d="M689.488 894.752l-367.936 0c-56.608 0-102.656-42.752-102.656-95.296l0-256.736c0-52.544 46.048-95.296 102.656-95.296l367.936 0c56.608 0 102.656 42.752 102.656 95.296l0 256.736c-0.032 52.544-46.08 95.296-102.656 95.296zM321.552 482.752c-37.152 0-67.328 26.912-67.328 59.968l0 256.736c0 33.056 30.208 59.968 67.328 59.968l367.936 0c37.152 0 67.328-26.88 67.328-59.968l0-256.736c0-33.088-30.208-59.968-67.328-59.968l-367.936 0z" p-id="490"></path><path d="M662.64 482.752c-9.76 0-17.664-7.904-17.664-17.664l0-119.232c0-7.296-4.384-13.984-11.2-17.056-6.496-2.944-10.624-9.504-10.368-16.64s4.736-13.44 11.424-15.968c6.08-2.272 10.144-6.624 10.144-10.848 0-5.888-8.032-12.448-18.784-12.448l-241.408 0c-10.752 0-18.784 6.56-18.784 12.448 0 4.224 4.064 8.576 10.112 10.848 6.688 2.528 11.2 8.832 11.424 15.968s-3.872 13.728-10.368 16.64c-6.784 3.072-11.168 9.76-11.168 17.056l0 119.232c0 9.76-7.904 17.664-17.664 17.664s-17.664-7.904-17.664-17.664l0-119.232c0-11.776 3.872-22.976 10.656-32.096-6.784-8.064-10.656-17.952-10.656-28.416 0-26.336 24.256-47.776 54.08-47.776l241.408 0c29.824 0 54.08 21.408 54.08 47.776 0 10.464-3.872 20.352-10.656 28.416 6.784 9.12 10.656 20.352 10.656 32.096l0 119.232c0 9.76-7.904 17.664-17.664 17.664z" p-id="491"></path><path d="M360.304 935.808c-9.76 0-17.664-7.904-17.664-17.664l0-27.968c0-9.76 7.904-17.664 17.664-17.664s17.664 7.904 17.664 17.664l0 27.968c0 9.76-7.904 17.664-17.664 17.664z" p-id="492"></path><path d="M650.736 935.808c-9.76 0-17.664-7.904-17.664-17.664l0-27.968c0-9.76 7.904-17.664 17.664-17.664s17.664 7.904 17.664 17.664l0 27.968c0 9.76-7.904 17.664-17.664 17.664z" p-id="493"></path><path d="M630.608 631.648l-250.144 0c-9.76 0-17.664-7.904-17.664-17.664s7.904-17.664 17.664-17.664l250.144 0c9.76 0 17.664 7.904 17.664 17.664s-7.904 17.664-17.664 17.664z" p-id="494"></path><path d="M630.608 745.856l-250.144 0c-9.76 0-17.664-7.904-17.664-17.664s7.904-17.664 17.664-17.664l250.144 0c9.76 0 17.664 7.904 17.664 17.664s-7.904 17.664-17.664 17.664z" p-id="495"></path><path d="M183.6 535.456c-9.76 0-17.664-7.904-17.664-17.664l0-35.04-52.288 0c-9.76 0-17.664-7.904-17.664-17.664s7.904-17.664 17.664-17.664l69.952 0c9.76 0 17.664 7.904 17.664 17.664l0 52.704c0 9.76-7.904 17.664-17.664 17.664z" p-id="496"></path><path d="M827.44 535.456c-9.76 0-17.664-7.904-17.664-17.664l0-52.704c0-9.76 7.904-17.664 17.664-17.664l69.952 0c9.76 0 17.664 7.904 17.664 17.664s-7.904 17.664-17.664 17.664l-52.288 0 0 35.04c0 9.76-7.904 17.664-17.664 17.664z" p-id="497"></path><path d="M428.016 223.904c-9.76 0-17.664-7.904-17.664-17.664l0-65.152c0-9.76 7.904-17.664 17.664-17.664s17.664 7.904 17.664 17.664l0 65.152c0 9.76-7.904 17.664-17.664 17.664z" p-id="498"></path><path d="M505.52 223.904c-9.76 0-17.664-7.904-17.664-17.664l0-100.416c0-9.76 7.904-17.664 17.664-17.664s17.664 7.904 17.664 17.664l0 100.416c0 9.76-7.904 17.664-17.664 17.664z" p-id="499"></path><path d="M583.024 223.904c-9.76 0-17.664-7.904-17.664-17.664l0-65.152c0-9.76 7.904-17.664 17.664-17.664s17.664 7.904 17.664 17.664l0 65.152c0 9.76-7.904 17.664-17.664 17.664z" p-id="500"></path></svg>