<?xml version="1.0" standalone="no"?><!DOCTYPE svg PUBLIC "-//W3C//DTD SVG 1.1//EN" "http://www.w3.org/Graphics/SVG/1.1/DTD/svg11.dtd"><svg t="1495699555688" class="icon" style="" viewBox="0 0 1024 1024" version="1.1" xmlns="http://www.w3.org/2000/svg" p-id="7797" xmlns:xlink="http://www.w3.org/1999/xlink" width="200" height="200"><defs><style type="text/css"></style></defs><path d="M277.957 216l475.148 0c15.805 0 28.086 12.301 28.086 26.336 1.735 15.695-10.546 26.207-26.296 26.207L277.957 268.543c-15.84 0-28.031-12.211-28.031-26.207C249.926 228.301 262.117 216 277.957 216L277.957 216zM791.742 773.512c0 15.859-19.219 35.148-36.847 35.148L276.188 808.66c-17.594 0-36.829-19.289-36.829-35.148L239.359 593.016l49.02 0 0 171.843 456.019 0L744.398 593.016l8.707 0 38.637 0L791.742 773.512 791.742 773.512zM767.211 542.078c-45.641 0-84.168-36.683-84.168-80.574 0 45.644-36.922 80.574-84.207 80.574-45.645 0-84.137-36.683-84.137-80.574 0 45.644-36.883 80.574-84.207 80.574-45.57 0-84.113-36.683-84.113-80.574 0 45.644-36.867 80.574-84.262 80.574-45.57 0-84.117-36.683-84.117-80.574l57.906-149.07 550.598 0 59.531 149.07C849.648 507.148 812.73 542.078 767.211 542.078L767.211 542.078zM767.211 542.078" p-id="7798"></path></svg>