<?xml version="1.0" standalone="no"?><!DOCTYPE svg PUBLIC "-//W3C//DTD SVG 1.1//EN" "http://www.w3.org/Graphics/SVG/1.1/DTD/svg11.dtd"><svg t="1495700223396" class="icon" style="" viewBox="0 0 1024 1024" version="1.1" xmlns="http://www.w3.org/2000/svg" p-id="11132" xmlns:xlink="http://www.w3.org/1999/xlink" width="200" height="200"><defs><style type="text/css"></style></defs><path d="M78.054 726.392H964.26c17.931 0 24.603-6.454 37.438-19.335 12.835-12.871 19.262-30.667 19.299-49.024 0.035-18.357-6.427-33.953-19.299-46.834-12.871-12.907-19.534-19.326-37.438-19.326h-5.829c-12.456-89.025-48.301-167.677-107.555-235.999-59.217-68.324-131.686-114.95-217.425-139.934v-1.186c1.565-7.812 2.371-13.677 2.371-17.588 0-36.705-12.844-67.729-38.562-93.098-25.715-25.368-56.881-38.072-93.52-38.072-36.638-0.036-67.591 12.668-92.922 38.072-25.299 25.403-37.967 56.425-38.004 93.098 0 3.911 0.385 10.157 1.154 18.738-85.739 24.983-158.217 71.645-217.434 139.932-59.217 68.333-95.054 146.975-107.544 236h29.1c-8.586 0-16.959 1.783-25.124 5.268-8.169 3.522-21.742 8.201-27.604 14.058-5.861 5.865-10.541 12.881-14.031 21.118-3.489 8.237-5.231 16.991-5.268 26.35 0 17.969 6.422 35.557 19.298 48.428 12.878 12.88 34.793 19.296 52.693 19.334z m360.191-522.626c0-17.968 6.423-39.924 19.299-52.8 12.875-12.876 28.263-19.295 46.159-19.33 17.94 0 33.327 6.454 46.173 19.33 12.844 12.876 19.262 34.867 19.288 52.8v3.52l-1.176 1.159a455.012 455.012 0 0 0-32.731-3.531c-10.898-0.77-21.436-1.148-31.589-1.148-10.148 0-20.653 0.378-31.574 1.148a455.617 455.617 0 0 0-32.699 3.531l-1.15-1.159v-3.52zM226.707 484.219v-0.072c21.042-34.333 47.739-64.033 80.087-89.016 32.347-24.983 68.395-42.96 108.142-53.876 1.571-0.769 3.137-1.158 4.676-1.158 2.335-0.761 4.29-1.141 5.824-1.141 9.355 0 17.343 3.313 23.974 9.975 6.631 6.626 9.949 14.654 9.949 24.005 0 5.486-1.191 10.537-3.526 15.217-2.339 4.679-5.653 8.59-9.947 11.722-4.291 3.14-8.758 5.096-13.434 5.866-21.042 6.246-40.724 14.654-59.009 25.191-18.285 10.544-35.066 23.036-50.282 37.484-15.217 14.447-28.265 30.25-39.154 47.449-1.572 3.911-3.907 7.404-7.016 10.547-3.104 3.141-6.626 5.476-10.5 7.051-3.911 1.566-8.165 2.371-12.876 2.371-9.355 0-17.135-3.113-23.381-9.396-6.246-6.245-9.351-14.057-9.351-23.407-0.037-7.118 1.919-13.336 5.824-18.812zM964.26 798.518H78.09c-17.936 0-39.851 6.463-52.691 19.334-12.845 12.871-19.262 19.787-19.298 38.145s6.417 49.232 19.298 62.113c12.908 12.908 34.822 19.335 52.691 19.335h886.17c17.931 0 24.603-6.463 37.438-19.335 12.835-12.881 19.262-43.756 19.299-62.113 0.035-18.357-6.427-25.236-19.299-38.145-12.908-12.872-19.569-19.334-37.438-19.334z" p-id="11133"></path></svg>