<?xml version="1.0" standalone="no"?><!DOCTYPE svg PUBLIC "-//W3C//DTD SVG 1.1//EN" "http://www.w3.org/Graphics/SVG/1.1/DTD/svg11.dtd"><svg t="1495699952337" class="icon" style="" viewBox="0 0 1024 1024" version="1.1" xmlns="http://www.w3.org/2000/svg" p-id="8566" xmlns:xlink="http://www.w3.org/1999/xlink" width="200" height="200"><defs><style type="text/css"></style></defs><path d="M649.907906 720.076012h58.448181c8.435113 0.664126 13.308097-3.622504 14.626115-12.879331l6.316869-29.718859h-70.335928l-9.055237 42.59819z" fill="" p-id="8567"></path><path d="M824.447105 410.233222h-624.830765c-38.34533 0-69.428256 41.029462-69.428256 91.645256v274.921444c0 50.615794 31.082926 91.644233 69.428256 91.644233h624.830765c38.34533 0 69.427232-41.029462 69.427232-91.644233v-274.921444c0-50.615794-31.082926-91.645257-69.427232-91.645256zM262.46269 538.787086h35.663245l2.738367-12.879331h42.59819l-2.738367 12.879331h35.663244l-5.89629 27.738761h-113.924679l5.89629-27.738761z m-45.616943 177.326685c11.870352-9.240455 20.211321-22.119787 25.052582-38.634926h29.718859c-7.265474 31.05018-27.140127 51.514257-59.615773 61.419862l4.844332-22.784936z m44.354183 33.683147H239.406578l5.264911-24.76708h8.916067c7.119141 0.666172 11.257391-3.298116 12.434193-11.888772l9.474792-44.577264h-40.617069l5.895267-27.738761h40.617069l3.368724-15.848967h-45.570895l5.896291-27.738761h17.832134c-1.489934-8.575306-1.714038-16.841573-0.679476-24.765033h34.672684c-1.034563 7.925507-0.810459 16.190751 0.679475 24.765033h18.821671c5.120624-8.575306 8.858762-16.841573 11.208273-24.765033h34.672684c-2.349511 7.925507-6.088672 16.190751-11.208273 24.765033h16.841574l-5.896291 27.738761h-39.626509l-3.368724 15.848967h36.654828l-5.895267 27.738761h-36.654828l-9.896394 46.560432c-4.40431 23.774473-18.406209 35.32146-42.043559 34.672684z m222.13931-192.186114c-12.592806 3.313465-26.809599 4.953825-42.659589 4.953825h-22.784936l-5.685489 26.747178h65.38415l-5.895267 27.737737h-14.860453l-27.79402 130.766253h-38.634925l27.79402-130.766253h-11.887749l-13.476942 63.402006c-5.231141 36.994566-25.933649 61.420885-62.143339 73.308633l4.001127-18.821671c-19.322068-8.575306-26.470885-27.738761-21.469987-57.45762h29.718858c-2.335185 17.180288-1.295506 29.394471 3.106758 36.652781 3.244904-5.943362 5.579065-13.868869 7.03523-23.775496l33.05893-155.531286h54.485939c17.024745 0.665149 33.365922-1.64036 49.024553-6.933922l-6.316869 29.717835z m309.264623 64.391542h-73.308633l-5.895267 27.738762h64.392566l-13.054318 61.419861c-4.40431 23.775496-18.078751 35.323507-41.052998 34.67166H602.826612l20.425191-96.091521h46.560432l15.581884-73.308633h43.588751l-3.790327 17.83111h73.308633l-5.897313 27.738761z m13.352099-53.496401H636.554784l-19.37221 91.139743c-7.055696 45.569872-32.867572 76.930113-77.462232 94.111425l5.895267-27.738761c12.434194-11.887748 21.326724-32.025391 26.714431-60.428278l26.741038-125.812427h86.186941l3.158946-14.860453h50.522674l-3.157923 14.860453h76.280314l-6.106068 28.728298zM511.88539 155.554822c-24.966625 0-45.233204 20.266579-45.233204 45.233204s20.340257 45.233204 45.233204 45.233204c24.966625 0 45.233204-20.266579 45.233204-45.233204s-20.266579-45.233204-45.233204-45.233204z m0 68.585051c-12.850679 0-23.350824-10.42749-23.350824-23.350824 0-12.850679 10.42749-23.350824 23.350824-23.350824 12.850679 0 23.350824 10.42749 23.350824 23.350824s-10.42749 23.350824-23.350824 23.350824z" fill="" p-id="8568"></path><path d="M795.32995 380.181789L545.002648 210.04076v21.442358h-7.489578l218.752166 148.698671h39.064714zM228.513484 380.181789h39.065737l221.836411-150.828171v-9.766434h-12.189623v-8.444323L228.513484 380.181789z" fill="" p-id="8569"></path></svg>