<?xml version="1.0" standalone="no"?><!DOCTYPE svg PUBLIC "-//W3C//DTD SVG 1.1//EN" "http://www.w3.org/Graphics/SVG/1.1/DTD/svg11.dtd"><svg t="1495526392356" class="icon" style="" viewBox="0 0 1024 1024" version="1.1" xmlns="http://www.w3.org/2000/svg" p-id="7406" xmlns:xlink="http://www.w3.org/1999/xlink" width="200" height="200"><defs><style type="text/css"></style></defs><path d="M921.6 1024 102.4 1024C57.15968 1024 20.48 987.32032 20.48 942.08L20.48 81.92C20.48 36.67968 57.15968 0 102.4 0L921.6 0C966.84032 0 1003.52 36.67968 1003.52 81.92L1003.52 942.08C1003.52 987.32032 966.84032 1024 921.6 1024ZM962.56 81.92C962.56 59.31008 944.2304 40.96 921.6 40.96L102.4 40.96C79.7696 40.96 61.44 59.31008 61.44 81.92L61.44 204.8 962.56 204.8 962.56 81.92ZM962.56 245.76 61.44 245.76 61.44 942.08C61.44 964.7104 79.7696 983.04 102.4 983.04L921.6 983.04C944.2304 983.04 962.56 964.7104 962.56 942.08L962.56 245.76ZM773.26336 842.15808 744.30464 871.13728 671.90784 798.72 700.86656 769.76128 744.30464 813.19936 831.20128 726.30272 860.16 755.28192 773.26336 842.15808 773.26336 842.15808ZM839.68 593.92 184.32 593.92C173.01504 593.92 163.84 584.74496 163.84 573.44 163.84 562.13504 173.01504 552.96 184.32 552.96L839.68 552.96C850.98496 552.96 860.16 562.13504 860.16 573.44 860.16 584.74496 850.98496 593.92 839.68 593.92ZM839.68 409.6 184.32 409.6C173.01504 409.6 163.84 400.42496 163.84 389.12 163.84 377.81504 173.01504 368.64 184.32 368.64L839.68 368.64C850.98496 368.64 860.16 377.81504 860.16 389.12 860.16 400.42496 850.98496 409.6 839.68 409.6ZM184.32 737.28 552.96 737.28C564.26496 737.28 573.44 746.45504 573.44 757.76 573.44 769.06496 564.26496 778.24 552.96 778.24L184.32 778.24C173.01504 778.24 163.84 769.06496 163.84 757.76 163.84 746.45504 173.01504 737.28 184.32 737.28Z" p-id="7407"></path></svg>