<?xml version="1.0" standalone="no"?><!DOCTYPE svg PUBLIC "-//W3C//DTD SVG 1.1//EN" "http://www.w3.org/Graphics/SVG/1.1/DTD/svg11.dtd"><svg t="1495700586676" class="icon" style="" viewBox="0 0 1024 1024" version="1.1" xmlns="http://www.w3.org/2000/svg" p-id="2148" xmlns:xlink="http://www.w3.org/1999/xlink" width="200" height="200"><defs><style type="text/css"></style></defs><path d="M371.2 211.2c-51.2 44.8-44.8 83.2 0 121.6l6.4 6.4h44.8L403.2 320c-38.4-32-38.4-64 0-96 57.6-51.2 57.6-89.6 0-140.8l-6.4-6.4h-38.4l19.2 19.2c44.8 38.4 51.2 70.4-6.4 115.2z m134.4 0c-51.2 44.8-51.2 83.2 0 121.6l6.4 6.4h44.8L537.6 320c-38.4-32-38.4-64 0-96 57.6-51.2 57.6-89.6 0-140.8l-6.4-6.4h-44.8l19.2 19.2c44.8 38.4 51.2 70.4 0 115.2z m134.4 0c-51.2 44.8-51.2 83.2 0 121.6l6.4 6.4h44.8l-19.2-19.2c-38.4-32-38.4-64 0-96 57.6-51.2 57.6-89.6 0-140.8l-6.4-6.4h-44.8l19.2 19.2c44.8 38.4 51.2 70.4 0 115.2zM998.4 320c-6.4-19.2-25.6-32-44.8-25.6-19.2 6.4-32 25.6-25.6 44.8 12.8 44.8 19.2 89.6 19.2 134.4v6.4c-89.6-51.2-307.2-134.4-454.4-19.2-121.6 96-358.4 19.2-416 0 0-38.4 6.4-76.8 19.2-115.2 0-19.2-12.8-38.4-32-44.8-12.8-6.4-38.4 6.4-38.4 25.6-19.2 44.8-25.6 96-25.6 147.2 0 281.6 230.4 512 512 512s512-230.4 512-512c-6.4-51.2-12.8-102.4-25.6-153.6zM512 915.2c-230.4 0-416-179.2-435.2-403.2 51.2 12.8 147.2 44.8 243.2 44.8 70.4 0 147.2-12.8 204.8-57.6 140.8-108.8 364.8 0 422.4 32-32 217.6-217.6 384-435.2 384z m166.4-204.8c-12.8 0-25.6 6.4-19.2 19.2s12.8 32 25.6 51.2 32 25.6 51.2 25.6c12.8 0 25.6-6.4 19.2-19.2 0-12.8-12.8-32-25.6-51.2-19.2-19.2-38.4-25.6-51.2-25.6z m-25.6-160c0 12.8 12.8 32 25.6 51.2 12.8 19.2 32 25.6 51.2 25.6 12.8 0 25.6-6.4 19.2-19.2 0-12.8-12.8-32-25.6-51.2s-32-25.6-51.2-25.6-19.2 0-19.2 19.2z m-134.4 64c-12.8 0-25.6 6.4-19.2 19.2 0 12.8 12.8 32 25.6 51.2 12.8 19.2 32 32 51.2 32 12.8 0 25.6-6.4 19.2-19.2 0-12.8-12.8-32-25.6-51.2-19.2-19.2-38.4-25.6-51.2-32z m-160 96c-12.8 0-25.6 6.4-19.2 19.2s12.8 32 25.6 51.2c12.8 19.2 32 25.6 51.2 25.6 12.8 0 25.6-6.4 19.2-19.2 0-12.8-12.8-32-25.6-51.2-19.2-19.2-38.4-25.6-51.2-25.6zM224 569.6c-12.8 0-25.6 6.4-25.6 25.6 0 12.8 12.8 32 25.6 51.2 12.8 19.2 32 25.6 51.2 25.6 12.8 0 25.6-6.4 19.2-19.2 0-12.8-12.8-32-25.6-51.2-12.8-19.2-32-25.6-44.8-32z" fill="#999899" p-id="2149"></path></svg>