<?xml version="1.0" standalone="no"?><!DOCTYPE svg PUBLIC "-//W3C//DTD SVG 1.1//EN" "http://www.w3.org/Graphics/SVG/1.1/DTD/svg11.dtd"><svg t="1495700116423" class="icon" style="" viewBox="0 0 1449 1024" version="1.1" xmlns="http://www.w3.org/2000/svg" p-id="10466" xmlns:xlink="http://www.w3.org/1999/xlink" width="283.0078125" height="200"><defs><style type="text/css"></style></defs><path d="M479.747354 558.701831l111.637158 0c11.180917 0 20.125651-8.944734 20.125651-20.125651s-8.944734-20.125651-20.125651-20.125651l-111.637158 0c-11.180917 0-20.125651 8.944734-20.125651 20.125651S468.738451 558.701831 479.747354 558.701831" p-id="10467"></path><path d="M508.645725 607.897867l-28.898371 0c-11.008903 0-20.125651 8.944734-20.125651 20.125651s8.944734 20.125651 20.125651 20.125651l28.898371 0c11.180917 0 20.125651-8.944734 20.125651-20.125651S519.654628 607.897867 508.645725 607.897867" p-id="10468"></path><path d="M546.832857 424.702839l111.637158 0c11.180917 0 20.125651-8.944734 20.125651-20.125651 0-11.180917-8.944734-20.125651-20.125651-20.125651l-111.637158 0c-11.180917 0-20.125651 8.944734-20.125651 20.125651C526.707206 415.586091 535.65194 424.702839 546.832857 424.702839" p-id="10469"></path><path d="M502.109189 491.616328l111.637158 0c11.008903 0 20.125651-8.944734 20.125651-20.125651 0-11.180917-8.944734-20.125651-20.125651-20.125651l-111.637158 0c-11.180917 0-20.125651 8.944734-20.125651 20.125651C481.983538 482.49958 490.928271 491.616328 502.109189 491.616328" p-id="10470"></path><path d="M837.36469 682.724005c-19.781623 0-35.778935-15.997312-35.778935-35.778935 0-19.781623 15.997312-35.778935 35.778935-35.778935 19.781623 0 35.778935 15.997312 35.778935 35.778935C873.143625 666.726692 856.974299 682.724005 837.36469 682.724005zM837.36469 570.914833c-41.971443 0-76.030237 34.058794-76.030237 76.030237s34.058794 76.030237 76.030237 76.030237c41.799429 0 76.030237-34.058794 76.030237-76.030237C913.222913 605.145641 879.164119 570.914833 837.36469 570.914833z" p-id="10471"></path><path d="M770.451201 481.983538c-1.376113 0-2.408198-1.032085-2.408198-2.236183l0-68.289602 49.712078 0c21.673778 0 52.120275 14.965228 65.365362 31.994625l29.758441 38.359147L770.451201 481.983538zM963.451033 481.811524c-0.344028-0.860071-0.860071-1.548127-1.376113-2.236183l-47.30388-60.720981c-21.157736-27.178229-62.78515-47.475895-97.015958-47.475895l-49.712078 0 0-14.793214c0-23.393919-18.921552-42.315471-42.315471-42.315471l-156.532841 0c-11.180917 0-20.125651 8.944734-20.125651 20.125651s8.944734 20.125651 20.125651 20.125651l156.532841 0c1.204099 0 2.236183 1.032085 2.236183 2.236183L727.963716 479.919368c0 23.221905 19.093566 42.315471 42.659499 42.315471l189.55955-0.344028c1.376113 0 2.236183 1.032085 2.236183 2.064169l0 89.791366c0 1.032085-1.032085 2.064169-2.236183 2.064169l-22.361834 0c-11.008903 0-20.125651 8.944734-20.125651 20.125651s8.944734 20.125651 20.125651 20.125651l22.361834 0c23.393919 0 42.315471-18.921552 42.315471-42.143457l0-89.791366C1002.498236 501.937175 985.468839 483.703679 963.451033 481.811524z" p-id="10472"></path><path d="M613.91836 682.724005c-19.781623 0-35.778935-15.997312-35.778935-35.778935 0-19.781623 16.169326-35.778935 35.778935-35.778935 19.781623 0 35.778935 15.997312 35.778935 35.778935C649.525281 666.726692 633.527969 682.724005 613.91836 682.724005zM613.91836 570.914833c-41.971443 0-76.030237 34.058794-76.030237 76.030237s34.058794 76.030237 76.030237 76.030237c41.971443 0 76.030237-34.058794 76.030237-76.030237C689.776583 605.145641 655.717789 570.914833 613.91836 570.914833z" p-id="10473"></path><path d="M733.296153 607.897867l-18.233496 0c-11.180917 0-20.125651 8.944734-20.125651 20.125651s8.944734 20.125651 20.125651 20.125651l18.233496 0c11.180917 0 20.125651-8.944734 20.125651-20.125651S744.305056 607.897867 733.296153 607.897867" p-id="10474"></path><path d="M723.835377 880.024189c-202.97665 0-367.938182-165.133546-367.938182-367.938182s165.133546-367.938182 367.938182-367.938182 367.938182 165.133546 367.938182 367.938182S926.640013 880.024189 723.835377 880.024189zM723.835377 88.931295c-233.251134 0-422.982698 189.731564-422.982698 422.982698s189.731564 422.982698 422.982698 422.982698 422.982698-189.731564 422.982698-422.982698S956.914497 88.931295 723.835377 88.931295z" p-id="10475"></path></svg>