<?xml version="1.0" standalone="no"?><!DOCTYPE svg PUBLIC "-//W3C//DTD SVG 1.1//EN" "http://www.w3.org/Graphics/SVG/1.1/DTD/svg11.dtd"><svg t="1495700403286" class="icon" style="" viewBox="0 0 1024 1024" version="1.1" xmlns="http://www.w3.org/2000/svg" p-id="1578" xmlns:xlink="http://www.w3.org/1999/xlink" width="200" height="200"><defs><style type="text/css"></style></defs><path d="M958.829721 106.85568c0.023536-0.168846 0.052189-0.337691 0.072655-0.506537 0.062422-0.505513 0.109494-1.014096 0.150426-1.521656 0.00921-0.113587 0.024559-0.228197 0.032746-0.342808 0.089028-1.233084 0.118704-2.473331 0.085958-3.715625-0.007163-0.26299-0.026606-0.522909-0.039909-0.784876-0.016373-0.350994-0.028653-0.701988-0.055259-1.052982-0.023536-0.305969-0.060375-0.608867-0.091074-0.912789-0.030699-0.306992-0.056282-0.613984-0.094144-0.920976-0.038886-0.308015-0.091074-0.61296-0.137123-0.918929-0.045025-0.301875-0.084934-0.603751-0.138146-0.904603-0.053212-0.302899-0.119727-0.601704-0.180102-0.902556-0.061398-0.301875-0.115634-0.604774-0.184195-0.905626-0.068562-0.300852-0.150426-0.597611-0.226151-0.896416-0.075725-0.296759-0.144286-0.594541-0.227174-0.890276-0.094144-0.335644-0.202615-0.666172-0.304945-0.998747-0.078795-0.25378-0.149403-0.508583-0.234337-0.760317-0.393973-1.177825-0.845251-2.332115-1.350764-3.460822-0.048095-0.106424-0.101307-0.210801-0.150426-0.316202-0.211824-0.461511-0.429789-0.921999-0.660032-1.3743-0.076748-0.151449-0.162706-0.300852-0.2415-0.452301-0.210801-0.400113-0.423649-0.799202-0.647753-1.191128-0.022513-0.038886-0.041956-0.079818-0.064468-0.118704l0 0c-0.096191-0.166799-0.201591-0.325411-0.299829-0.490164-0.193405-0.323365-0.38681-0.64673-0.589424-0.963954-0.169869-0.265036-0.345877-0.522909-0.520863-0.782829-0.160659-0.237407-0.319272-0.475837-0.485047-0.710175-0.220011-0.311085-0.447185-0.615007-0.676405-0.917906-0.12996-0.171915-0.257873-0.344854-0.390903-0.514723-0.26299-0.337691-0.533143-0.666172-0.806365-0.992607-0.10847-0.12996-0.216941-0.25992-0.327458-0.388856-0.296759-0.343831-0.599657-0.680499-0.906649-1.01205-0.101307-0.10847-0.201591-0.217964-0.303922-0.325411-0.315178-0.331551-0.635473-0.655939-0.960885-0.974188-0.11154-0.109494-0.223081-0.217964-0.335644-0.325411-0.317225-0.302899-0.639566-0.599657-0.966001-0.890276-0.138146-0.122797-0.276293-0.24457-0.415462-0.36532-0.303922-0.26299-0.611937-0.51984-0.924045-0.772596-0.179079-0.145309-0.360204-0.288572-0.542352-0.431835-0.276293-0.214894-0.555655-0.426719-0.838088-0.63445-0.232291-0.170892-0.466628-0.338714-0.704035-0.505513-0.23843-0.166799-0.476861-0.330528-0.718361-0.491187-0.290619-0.193405-0.583285-0.382717-0.880043-0.568958-0.196475-0.122797-0.39295-0.243547-0.591471-0.36225-0.343831-0.206708-0.691755-0.408299-1.043772-0.604774-0.160659-0.089028-0.321318-0.177032-0.481977-0.264013-0.385786-0.207731-0.775666-0.410346-1.170662-0.604774-0.13917-0.068562-0.278339-0.1361-0.417509-0.202615-0.410346-0.196475-0.825808-0.38681-1.245364-0.569982-0.137123-0.059352-0.274246-0.116657-0.412392-0.174985-0.416486-0.174985-0.835018-0.343831-1.25969-0.50449-0.158612-0.060375-0.318248-0.116657-0.476861-0.174985-0.400113-0.145309-0.801249-0.286526-1.208525-0.418532-0.205685-0.067538-0.413416-0.128937-0.620124-0.192382-0.361227-0.110517-0.723477-0.220011-1.089821-0.320295-0.277316-0.075725-0.556679-0.144286-0.836041-0.213871-0.303922-0.075725-0.605797-0.153496-0.912789-0.221034-0.367367-0.081864-0.737804-0.153496-1.107217-0.224104-0.188288-0.035816-0.372483-0.080841-0.561795-0.113587l0 0c-0.045025-0.008186-0.089028-0.01228-0.13303-0.020466-0.445138-0.076748-0.893346-0.140193-1.341554-0.201591-0.168846-0.023536-0.337691-0.052189-0.506537-0.072655-0.505513-0.062422-1.014096-0.109494-1.521656-0.150426-0.113587-0.00921-0.228197-0.024559-0.342808-0.032746-1.233084-0.089028-2.473331-0.118704-3.715625-0.085958-0.26299 0.007163-0.522909 0.026606-0.783853 0.039909-0.350994 0.016373-0.701988 0.028653-1.054005 0.055259-0.305969 0.023536-0.608867 0.060375-0.912789 0.091074-0.306992 0.030699-0.613984 0.056282-0.920976 0.094144-0.308015 0.038886-0.611937 0.091074-0.917906 0.137123-0.301875 0.046049-0.603751 0.084934-0.905626 0.138146-0.301875 0.053212-0.599657 0.119727-0.898463 0.180102-0.302899 0.061398-0.606821 0.116657-0.909719 0.185218-0.299829 0.068562-0.595564 0.149403-0.893346 0.225127-0.297782 0.075725-0.596588 0.145309-0.893346 0.228197-0.334621 0.094144-0.663102 0.201591-0.99363 0.303922-0.254803 0.078795-0.511653 0.150426-0.765433 0.236384-1.177825 0.393973-2.332115 0.845251-3.460822 1.350764-0.106424 0.047072-0.210801 0.101307-0.316202 0.150426-0.461511 0.211824-0.920976 0.429789-1.3743 0.660032-0.152473 0.077771-0.301875 0.162706-0.453325 0.242524-0.399089 0.210801-0.797156 0.422625-1.189082 0.64673-0.039909 0.022513-0.079818 0.041956-0.119727 0.065492L92.306312 537.181519c-13.021571 4.019547-23.397896 14.992459-25.952068 29.334095l0 0c-2.958378 16.609283 5.479805 32.610722 19.712971 39.97955 5.145184 2.856048 10.902304 4.463662 16.775059 4.703115l232.229109 41.36306c20.439518 3.640923 39.96113-9.978259 43.601031-30.417777l0 0c3.640923-20.439518-9.978259-39.96113-30.417777-43.601031l-135.437645-24.12342 539.016307-311.201741L436.180174 590.263481c-7.048533 7.749498-10.248412 17.641799-9.721409 27.335578-0.039909 0.733711-0.064468 1.471514-0.060375 2.216481l1.217734 282.830577c0.089028 20.760836 16.991999 37.519522 37.752836 37.429471l0 0c20.760836-0.089028 37.519522-16.991999 37.429471-37.752836l-1.172709-272.275173 358.058932-393.667941L751.928465 847.500147 614.636588 734.049259c-16.004509-13.225209-39.699164-10.971889-52.924373 5.03262l0 0c-13.225209 16.004509-10.971889 39.699164 5.03262 52.924373l179.942255 148.694577c5.51869 7.874341 14.038738 13.644765 24.25645 15.445784l0 0c20.445658 3.605108 39.943734-10.04682 43.548842-30.492478L958.607664 108.331287c0.008186-0.045025 0.01228-0.089028 0.020466-0.13303C958.704878 107.752096 958.768323 107.303888 958.829721 106.85568z" p-id="1579"></path></svg>