<?xml version="1.0" standalone="no"?><!DOCTYPE svg PUBLIC "-//W3C//DTD SVG 1.1//EN" "http://www.w3.org/Graphics/SVG/1.1/DTD/svg11.dtd"><svg t="1495701210061" class="icon" style="" viewBox="0 0 1024 1024" version="1.1" xmlns="http://www.w3.org/2000/svg" p-id="1286" xmlns:xlink="http://www.w3.org/1999/xlink" width="200" height="200"><defs><style type="text/css"></style></defs><path d="M1006.191616 670.51008c0 153.547776-224.835584 278.165504-500.86912 278.165504-276.035584 0-500.870144-124.617728-500.870144-278.165504S229.286912 392.3456 505.321472 392.3456c278.26176 0 500.86912 124.617728 500.86912 278.165504" fill="#939598" p-id="1287"></path><path d="M1006.191616 614.877184c0 153.547776-224.835584 278.165504-500.86912 278.165504-276.035584 0-500.870144-124.617728-500.870144-278.165504S229.286912 336.71168 505.321472 336.71168c278.26176 0 500.86912 124.617728 500.86912 278.165504" fill="#F1F2F2" p-id="1288"></path><path d="M917.147648 605.975552c0 117.942272-184.76544 211.405824-411.826176 211.405824-227.060736 0-411.826176-95.688704-411.826176-211.4048 0-117.943296 184.76544-211.406848 411.826176-211.406848 227.06176 0 411.826176 93.463552 411.826176 211.405824" fill="#FFCC4D" p-id="1289"></path><path d="M311.652352 755.073024c-15.583232 0-26.713088-13.35296-26.713088-26.703872 0-15.578112 13.356032-26.703872 26.713088-26.703872 53.426176 0 86.816768-31.1552 89.042944-51.182592 2.226176-20.028416-26.713088-31.1552-40.06912-33.380352-24.486912-6.67648-44.521472 0-64.557056 8.901632-28.93824 11.126784-71.23456 26.703872-113.53088-15.577088-20.033536-20.028416-24.485888-44.507136-13.356032-68.985856 20.035584-48.95744 95.722496-89.013248 144.69632-89.013248 15.582208 0 26.713088 13.35296 26.713088 26.703872 0 15.578112-13.357056 26.703872-26.713088 26.703872-31.16544 0-82.36544 31.1552-93.49632 53.408768-2.226176 4.450304-2.226176 6.67648 2.226176 8.900608 17.809408 17.803264 26.713088 15.577088 55.652352 4.451328 24.486912-8.901632 57.878528-22.253568 100.173824-11.126784 66.783232 15.577088 84.591616 60.0832 80.139264 93.463552-8.904704 48.95744-64.556032 100.140032-146.921472 100.140032M478.608384 781.776896c-15.582208 0-26.713088-13.35296-26.713088-26.703872 0-15.578112 13.357056-26.703872 26.713088-26.703872 158.052352 0 273.809408-35.605504 342.817792-102.365184a28.222464 28.222464 0 0 1 40.06912 0 28.198912 28.198912 0 0 1 0 40.055808c-80.13824 75.661312-209.251328 115.71712-382.886912 115.71712" fill="#FFE8B6" p-id="1290"></path><path d="M598.817792 674.960384c-15.583232 0-28.939264-2.225152-44.522496-4.450304-15.582208-4.450304-60.10368-15.577088-62.33088-53.407744 0-26.703872 17.809408-60.084224 164.73088-109.04064-15.582208-13.35296-53.426176-31.1552-95.721472-31.1552-69.008384 0-104.626176 6.67648-120.208384 20.028416a28.222464 28.222464 0 0 1-40.06912 0 28.198912 28.198912 0 0 1 0-40.055808c26.712064-26.703872 69.00736-35.605504 158.051328-35.605504 66.783232 0 149.147648 37.830656 158.052352 84.56192 2.226176 17.803264-4.452352 42.28096-37.843968 53.408768-71.23456 24.477696-109.077504 42.28096-124.660736 53.407744 2.226176 0 6.678528 2.225152 11.13088 4.450304 89.042944 22.253568 204.8-66.75968 215.93088-89.013248 2.225152-13.351936 13.356032-24.47872 26.712064-24.47872 15.583232 0 26.713088 13.35296 26.713088 26.703872 0 20.028416-17.80736 42.28096-53.426176 71.211008-42.295296 40.055808-113.53088 73.435136-182.53824 73.435136" fill="#FFE8B6" p-id="1291"></path><path d="M756.86912 574.821376c0 68.984832-55.651328 153.547776-195.895296 153.547776-140.242944 0-111.304704-55.63392-333.913088-137.970688-93.495296-35.60448 140.243968-137.970688 278.26176-137.970688 138.016768 0 251.546624 53.407744 251.546624 122.3936" fill="#DD2E44" p-id="1292"></path><path d="M449.66912 670.51008c-6.677504 0-13.356032-2.225152-20.03456-8.901632a28.198912 28.198912 0 0 1 0-40.055808c8.904704-8.900608 2.226176-13.351936 0-15.577088-15.582208-15.577088-62.33088-17.80224-106.852352 4.451328-13.356032 6.675456-31.164416 2.225152-37.842944-13.35296-6.678528-13.351936-2.226176-31.154176 13.356032-37.829632 55.652352-26.703872 131.339264-35.605504 171.409408 4.450304 35.616768 35.60448 20.03456 75.661312 0 95.688704-4.452352 8.901632-11.13088 11.126784-20.035584 11.126784M560.973824 559.244288c-66.782208 0-102.4-35.605504-131.33824-64.534528a28.198912 28.198912 0 0 1 0-40.055808 28.222464 28.222464 0 0 1 40.06912 0c26.713088 26.703872 46.747648 46.731264 91.26912 46.731264 22.26176 0 71.23456 0 91.26912-20.027392a28.222464 28.222464 0 0 1 40.070144 0 28.198912 28.198912 0 0 1 0 40.055808c-35.617792 37.830656-100.173824 37.830656-131.33824 37.830656M560.973824 670.51008c-15.582208 0-26.713088-13.351936-26.713088-26.703872 0-15.577088 13.357056-26.703872 26.713088-26.703872 51.2 0 126.886912-26.703872 146.921472-46.732288a28.222464 28.222464 0 0 1 40.06912 0 28.198912 28.198912 0 0 1 0 40.056832c-35.616768 33.379328-129.112064 60.0832-186.990592 60.0832" fill="#EA596E" p-id="1293"></path><path d="M478.608384 559.244288c-11.13088 0-20.03456-6.67648-24.486912-15.578112-26.713088-55.632896-84.590592-171.350016-113.53088-398.332928-2.225152-15.577088 8.904704-28.929024 24.487936-31.1552 15.582208-2.225152 28.93824 8.901632 31.16544 24.47872 26.712064 218.082304 82.364416 327.122944 109.077504 380.531712 6.678528 13.351936 2.226176 31.154176-13.356032 37.829632-4.452352 2.226176-8.904704 2.226176-13.357056 2.226176" fill="#FFAC33" p-id="1294"></path><path d="M983.93088 310.006784L558.747648 185.389056C465.252352 38.516736 347.26912 60.770304 282.713088 58.546176c-6.678528 0-22.26176 6.675456-22.26176 17.80224 0 11.12576 28.940288 8.900608 33.39264 8.900608 46.747648 2.225152 109.077504 4.451328 171.40736 68.985856C391.79264 127.52896 278.26176 111.95392 256 114.178048c-13.356032 2.226176-13.356032 11.126784 2.226176 17.803264 13.356032 6.67648 126.886912 46.731264 189.217792 64.534528-40.06912 13.351936-91.26912 20.027392-178.087936-24.47872-13.356032-6.67648-33.390592-15.577088-40.06912-2.225152-6.678528 13.351936 13.357056 20.027392 26.713088 26.703872 60.104704 28.929024 95.721472 64.534528 133.56544 64.534528 46.747648 0 80.13824-13.35296 104.626176-24.47872 8.90368-4.451328 17.808384-6.67648 24.486912-8.901632h2.226176l411.826176 182.4768c13.356032 6.67648 44.521472-22.253568 51.2-35.60448 8.90368-11.126784 8.90368-57.859072 0-64.535552" fill="#99AAB5" p-id="1295"></path><path d="M367.304704 532.540416c-6.678528 0-13.357056-2.226176-20.035584-8.901632-35.616768-35.60448-124.660736-247.011328-2.225152-398.333952 8.90368-11.126784 26.712064-13.351936 40.06912-4.450304 11.13088 8.901632 13.356032 26.703872 4.452352 40.055808-102.4 126.84288-22.26176 304.869376-2.226176 324.897792a28.198912 28.198912 0 0 1 0 40.055808c-6.678528 4.450304-13.357056 6.67648-20.03456 6.67648" fill="#FFAC33" p-id="1296"></path></svg>