<?xml version="1.0" standalone="no"?><!DOCTYPE svg PUBLIC "-//W3C//DTD SVG 1.1//EN" "http://www.w3.org/Graphics/SVG/1.1/DTD/svg11.dtd"><svg t="1498093744923" class="icon" style="" viewBox="0 0 1024 1024" version="1.1" xmlns="http://www.w3.org/2000/svg" p-id="5449" xmlns:xlink="http://www.w3.org/1999/xlink" width="200" height="200"><defs><style type="text/css"></style></defs><path d="M911.095557 420.942121c-3.087315-9.602705-12.097526-16.240893-22.353101-16.480346l-266.528286-5.572926-87.561241-249.101381c-3.318582-9.425673-12.450567-15.886829-22.645766-15.886829-10.194176 0-19.323091 6.461155-22.644743 15.886829l-87.499843 249.101381-266.652106 5.572926c-10.256598 0.239454-19.208481 6.877641-22.350031 16.480346-3.139503 9.722432 0.239454 20.571525 8.480138 26.498514L333.571215 606.853321l-77.18594 252.18358c-2.967588 9.898441 0.593518 20.451798 8.833179 26.440186 2.131547 1.597381 4.38282 2.786463 6.758937 3.494591 0.769526 0.181125 1.600451 0.181125 2.428306 0.415462 1.544169 0.239454 3.201925 0.712221 4.860704 0.712221l0.178055 0c1.542122 0 2.967588-0.234337 4.569062-0.712221 0.768503-0.234337 1.596358 0 2.369977-0.234337 2.371-0.889253 4.621251-1.782599 6.697539-3.201925l218.927151-150.933571L730.996736 885.950877c4.091178 2.786463 8.833179 4.148483 13.631462 4.148483 4.980431 0 9.960863-1.600451 14.229073-4.621251 8.238638-5.989411 11.738345-16.541745 8.774851-26.440186l-77.18594-252.18358 212.289987-159.408593C910.97583 441.513646 914.294412 430.664553 911.095557 420.942121zM650.058332 592.33056l80.751139 250.558569L512.005117 691.486884 297.357432 842.887083c-1.605567 1.098008 76.598562-250.555499 76.598562-250.555499l-214.396975-159.973458 267.230274-0.920976 85.209684-246.543116 85.269036 246.543116 268.473591 4.311189C864.830861 438.220646 650.058332 592.33056 650.058332 592.33056z" p-id="5450"></path></svg>